HIERARCHY
ROOT Hips
{
	OFFSET -0.001795 -0.223333 0.028219
	CHANNELS 6 Xposition Yposition Zposition Zrotation Yrotation Xrotation 
	JOINT LeftUpLeg
	{
		OFFSET 0.069520 -0.091406 -0.006815
		CHANNELS 3 Zrotation Yrotation Xrotation
		JOINT LeftLeg
		{
			OFFSET 0.034277 -0.375199 -0.004496
			CHANNELS 3 Zrotation Yrotation Xrotation
			JOINT LeftFoot
			{
				OFFSET -0.013596 -0.397961 -0.043693
				CHANNELS 3 Zrotation Yrotation Xrotation
				JOINT LeftToe
				{
					OFFSET 0.026358 -0.055791 0.119288
					CHANNELS 3 Zrotation Yrotation Xrotation
					End Site
					{
						OFFSET 0.000000 0.000000 0.000000
					}
				}
			}
		}
	}
	JOINT RightUpLeg
	{
		OFFSET -0.067670 -0.090522 -0.004320
		CHANNELS 3 Zrotation Yrotation Xrotation
		JOINT RightLeg
		{
			OFFSET -0.038290 -0.382569 -0.008850
			CHANNELS 3 Zrotation Yrotation Xrotation
			JOINT RightFoot
			{
				OFFSET 0.015774 -0.398415 -0.042312
				CHANNELS 3 Zrotation Yrotation Xrotation
				JOINT RightToe
				{
					OFFSET -0.025372 -0.048144 0.123348
					CHANNELS 3 Zrotation Yrotation Xrotation
					End Site
					{
						OFFSET 0.000000 0.000000 0.000000
					}
				}
			}
		}
	}
	JOINT Spine
	{
		OFFSET -0.002533 0.108963 -0.026696
		CHANNELS 3 Zrotation Yrotation Xrotation
		JOINT Spine1
		{
			OFFSET 0.005487 0.135180 0.001092
			CHANNELS 3 Zrotation Yrotation Xrotation
			JOINT Spine2
			{
				OFFSET 0.001457 0.052922 0.025425
				CHANNELS 3 Zrotation Yrotation Xrotation
				JOINT Neck
				{
					OFFSET -0.002778 0.213870 -0.042857
					CHANNELS 3 Zrotation Yrotation Xrotation
					JOINT Head
					{
						OFFSET 0.005152 0.064970 0.051349
						CHANNELS 3 Zrotation Yrotation Xrotation
						End Site
						{
							OFFSET 0.000000 0.000000 0.000000
						}
					}
				}
				JOINT LeftShoulder
				{
					OFFSET 0.078845 0.121749 -0.034090
					CHANNELS 3 Zrotation Yrotation Xrotation
					JOINT LeftArm
					{
						OFFSET 0.090977 0.030469 -0.008868
						CHANNELS 3 Zrotation Yrotation Xrotation
						JOINT LeftForeArm
						{
							OFFSET 0.259612 -0.012772 -0.027456
							CHANNELS 3 Zrotation Yrotation Xrotation
							JOINT LeftHand
							{
								OFFSET 0.249234 0.008986 -0.001171
								CHANNELS 3 Zrotation Yrotation Xrotation
								End Site
								{
									OFFSET 0.000000 0.000000 0.000000
								}
							}
						}
					}
				}
				JOINT RightShoulder
				{
					OFFSET -0.081759 0.118833 -0.038615
					CHANNELS 3 Zrotation Yrotation Xrotation
					JOINT RightArm
					{
						OFFSET -0.096012 0.032551 -0.009143
						CHANNELS 3 Zrotation Yrotation Xrotation
						JOINT RightForeArm
						{
							OFFSET -0.253742 -0.013329 -0.021401
							CHANNELS 3 Zrotation Yrotation Xrotation
							JOINT RightHand
							{
								OFFSET -0.255298 0.007772 -0.005559
								CHANNELS 3 Zrotation Yrotation Xrotation
								End Site
								{
									OFFSET 0.000000 0.000000 0.000000
								}
							}
						}
					}
				}
			}
		}
	}
}
MOTION
Frames: 14
Frame Time: 0.050000
0.000000 0.875017 0.000000 -1.063430 2.865312 5.408095 22.255072 1.917868 -27.041520 -12.764784 3.231766 25.249937 8.245018 17.452288 3.301462 0.000000 0.000000 0.000000 -17.345570 -1.072663 -25.810300 8.293800 -2.248374 28.402345 -7.312259 -18.204078 4.061036 0.000000 0.000000 0.000000 -1.589723 -0.786983 23.792221 5.628375 -0.564723 -25.387124 -0.369664 -0.685187 24.810881 2.321585 0.568116 -28.501315 0.000000 0.000000 0.000000 -13.717292 2.378553 -2.062536 -10.422106 -10.164964 -1.396127 10.769697 -11.208425 -0.648190 0.000000 0.000000 0.000000 -2.289996 0.793968 0.322965 12.773135 5.543627 -1.528876 -6.351647 0.833014 0.129843 0.000000 0.000000 0.000000 
0.000034 0.855851 -0.006745 -1.615138 2.601192 5.902728 24.695128 2.807891 -30.117082 -13.564685 3.830425 28.428013 8.060312 16.996867 1.347972 0.000000 0.000000 0.000000 -17.689770 -1.342063 -29.276054 9.174779 -2.913207 33.696062 -7.616057 -18.883806 2.495924 0.000000 0.000000 0.000000 -1.303267 -1.023176 27.668922 5.735201 -0.617286 -24.907141 0.071984 -0.279206 23.648254 0.403987 1.824900 -31.886577 0.000000 0.000000 0.000000 -18.079437 1.522843 -2.146777 -12.469176 -14.858190 -1.326074 12.896663 -12.497081 -0.930323 0.000000 0.000000 0.000000 0.294516 4.103376 1.469031 15.008155 7.061094 -1.605680 -8.682388 3.294301 0.051946 0.000000 0.000000 0.000000 
0.002584 0.838115 -0.014014 -1.332073 2.652566 5.645261 25.107869 3.275305 -33.082649 -14.198248 4.657285 34.582300 8.449492 17.444744 -2.815413 0.000000 0.000000 0.000000 -19.851081 -2.163676 -32.193945 12.996582 -5.138292 38.707733 -8.427949 -20.809316 -0.971070 0.000000 0.000000 0.000000 -1.549074 -1.125769 31.257547 6.221994 -0.805111 -23.933625 -0.343451 1.160514 23.699262 2.259909 1.425741 -36.122527 0.000000 0.000000 0.000000 -20.365164 -1.798174 -0.925055 -17.927651 -19.148133 -0.969226 13.645608 -15.744911 -1.284357 0.000000 0.000000 0.000000 4.199866 7.526747 2.965805 18.262358 12.123335 -1.460967 -10.570176 4.475335 -0.007548 0.000000 0.000000 0.000000 
0.007876 0.819670 -0.020723 -1.538364 2.502866 6.052829 26.261117 4.085221 -36.637717 -15.353698 5.722024 39.044160 8.967411 18.480582 -4.846026 0.000000 0.000000 0.000000 -21.892733 -3.052899 -35.470504 14.008424 -6.100896 42.540020 -7.931950 -19.609677 -0.218428 0.000000 0.000000 0.000000 -2.095556 -1.074381 34.217225 6.082762 -0.761517 -24.073404 1.054879 0.200093 23.635725 1.431719 1.829885 -39.816212 0.000000 0.000000 0.000000 -22.253961 -3.876404 0.449142 -24.889628 -23.840361 -0.124590 12.741817 -20.734483 -1.440250 0.000000 0.000000 0.000000 5.386617 13.468467 5.336889 20.751676 16.425869 -0.919825 -10.735209 9.343154 -0.354686 0.000000 0.000000 0.000000 
0.016102 0.801242 -0.026198 -1.588148 2.240021 6.085040 26.629994 4.665371 -39.449310 -15.691502 6.559518 43.992416 9.226728 18.958743 -7.372178 0.000000 0.000000 0.000000 -23.010367 -3.671480 -38.027738 14.586963 -6.717934 45.240897 -8.702253 -21.427439 -0.308161 0.000000 0.000000 0.000000 -2.594903 -1.015518 37.824596 6.537289 -0.784876 -25.160113 1.311352 1.268705 23.801352 1.678199 1.999126 -42.374187 0.000000 0.000000 0.000000 -23.496993 -8.550599 2.904836 -31.437511 -29.619085 1.772498 12.879586 -26.146654 -1.822935 0.000000 0.000000 0.000000 8.600524 18.577536 8.016316 22.964550 24.358921 0.255005 -13.545894 13.334864 -0.854160 0.000000 0.000000 0.000000 
0.026983 0.783733 -0.030182 -2.101279 0.586458 6.208611 28.240326 5.893908 -40.932717 -17.031362 8.247377 47.937244 9.085160 18.461731 -10.629980 0.000000 0.000000 0.000000 -23.619227 -3.833351 -40.772010 14.430334 -6.747042 48.825458 -7.740915 -19.213247 -2.499892 0.000000 0.000000 0.000000 -3.635704 -0.444554 40.169274 6.859984 -0.834954 -25.666552 3.439509 1.802513 24.011212 1.188915 2.330297 -46.493649 0.000000 0.000000 0.000000 -23.633315 -11.724962 4.935136 -38.545613 -35.419149 4.631923 12.041841 -29.392375 -1.725303 0.000000 0.000000 0.000000 9.824949 23.061263 10.178249 23.079985 33.521622 1.719662 -15.750404 16.142667 -1.371746 0.000000 0.000000 0.000000 
0.039039 0.765519 -0.031619 -2.131768 0.655452 6.423950 28.555386 6.355086 -43.009245 -17.291270 9.194680 52.700945 9.090899 18.309397 -13.731885 0.000000 0.000000 0.000000 -26.028365 -4.966281 -42.674508 15.293510 -7.684311 51.527342 -7.260357 -17.922503 -4.028874 0.000000 0.000000 0.000000 -3.134517 -0.693881 42.058795 6.609310 -0.774435 -25.675193 3.887965 2.004995 22.553154 -0.235650 2.825027 -46.507136 0.000000 0.000000 0.000000 -23.856844 -15.775489 7.308459 -40.597678 -40.134454 6.944944 12.845800 -35.702906 -2.351606 0.000000 0.000000 0.000000 11.398883 26.888408 12.336278 21.310809 39.600269 2.355163 -17.140293 21.373737 -2.172529 0.000000 0.000000 0.000000 
0.050489 0.745330 -0.030368 -2.726345 0.502115 5.263052 29.032615 6.945344 -44.711576 -16.193902 9.563363 59.495837 8.496424 16.115168 -17.161089 0.000000 0.000000 0.000000 -27.273574 -5.598541 -43.640056 15.414387 -8.356184 56.025029 -6.692382 -16.091071 -6.546342 0.000000 0.000000 0.000000 -2.814213 -0.872078 44.385067 5.970113 -0.577971 -26.629903 4.771745 2.765130 22.659798 -1.331399 3.274487 -47.221806 0.000000 0.000000 0.000000 -22.617975 -18.579864 8.666677 -41.885683 -45.714482 9.512403 15.331811 -37.338457 -3.310251 0.000000 0.000000 0.000000 11.018538 28.825458 13.218509 18.525412 44.591089 2.315142 -19.337842 24.551469 -2.993604 0.000000 0.000000 0.000000 
0.058927 0.724007 -0.027372 -3.059440 1.024114 4.356492 29.713338 7.361094 -46.199110 -16.896553 10.775343 64.479850 8.500952 15.577237 -20.355176 0.000000 0.000000 0.000000 -29.087725 -6.540425 -43.864175 15.606489 -9.169289 59.652576 -6.413086 -14.919964 -8.633376 0.000000 0.000000 0.000000 -2.870686 -1.004660 46.004401 6.884407 -0.723183 -27.235342 5.006269 4.125915 22.035721 -2.478927 3.823197 -45.747193 0.000000 0.000000 0.000000 -22.403066 -20.513583 9.247438 -41.047903 -48.529432 10.454629 18.363812 -39.495835 -4.737006 0.000000 0.000000 0.000000 10.693046 29.881216 13.864517 15.129095 47.278585 1.622506 -19.846303 24.883744 -3.150022 0.000000 0.000000 0.000000 
0.062513 0.702283 -0.024887 -3.492040 1.338260 3.778647 31.197596 8.331598 -48.419334 -16.507676 11.437334 70.346886 7.716808 12.503516 -21.452872 0.000000 0.000000 0.000000 -29.535590 -7.049092 -44.870115 14.584194 -9.066431 63.444914 -6.128014 -13.421558 -11.567135 0.000000 0.000000 0.000000 -2.624024 -1.231280 47.197736 6.890443 -0.675544 -27.809798 5.332497 4.885797 21.937386 -3.761331 4.386698 -44.326913 0.000000 0.000000 0.000000 -21.922579 -21.838900 9.687421 -38.031495 -51.527851 10.449860 20.808907 -40.102383 -5.811771 0.000000 0.000000 0.000000 10.374730 30.996632 14.416777 12.922816 49.044520 1.075400 -21.298885 22.396659 -3.060413 0.000000 0.000000 0.000000 
0.060703 0.681157 -0.024612 -3.677229 2.111364 3.372316 32.416566 9.082582 -50.775385 -16.781194 12.302829 74.599529 7.649757 11.880229 -22.766901 0.000000 0.000000 0.000000 -29.975042 -7.814605 -46.335383 13.773479 -9.315588 67.927764 -6.548072 -14.621170 -12.288185 0.000000 0.000000 0.000000 -2.787349 -1.425240 49.591886 7.032096 -0.618796 -28.755981 6.010609 6.026553 22.297311 -3.319928 4.399249 -44.321174 0.000000 0.000000 0.000000 -20.217976 -23.668650 10.124503 -35.258418 -55.152369 10.476897 23.462530 -37.734286 -6.474179 0.000000 0.000000 0.000000 8.283666 32.171101 14.446221 10.233830 48.432218 0.249996 -22.170065 20.577913 -2.945840 0.000000 0.000000 0.000000 
0.053791 0.657200 -0.027272 -3.935760 2.939386 3.573603 33.748194 10.074912 -54.031226 -16.498228 13.135397 80.450335 7.368952 10.459010 -23.881059 0.000000 0.000000 0.000000 -29.693758 -8.472592 -48.632675 12.652266 -9.328574 72.590092 -6.922939 -15.330063 -15.510542 0.000000 0.000000 0.000000 -3.609163 -1.336960 52.219505 8.348939 -0.809009 -29.317298 6.442322 7.613711 20.769523 -4.234279 4.916742 -43.673823 0.000000 0.000000 0.000000 -20.269444 -24.807424 10.222975 -30.906697 -57.091394 9.217685 20.563324 -34.793111 -5.145669 0.000000 0.000000 0.000000 8.769616 34.143600 15.857309 7.713002 46.447731 -0.541195 -20.736241 17.399396 -2.251235 0.000000 0.000000 0.000000 
0.043201 0.630083 -0.031225 -4.067350 2.737771 3.482659 34.817948 11.536458 -57.513610 -14.615641 12.374540 85.664648 7.134280 9.428813 -24.026116 0.000000 0.000000 0.000000 -28.879085 -8.869456 -52.555279 11.230505 -8.665275 78.183395 -7.167809 -16.138219 -15.819819 0.000000 0.000000 0.000000 -5.074618 -0.631091 55.844600 8.478830 -0.741841 -30.303173 7.557423 7.884093 21.684348 -4.432128 4.967417 -44.694581 0.000000 0.000000 0.000000 -16.931502 -26.665281 10.865674 -25.228835 -60.409150 7.050853 20.508752 -28.622071 -4.170194 0.000000 0.000000 0.000000 4.902413 36.326155 15.287524 7.382381 46.035023 -0.453162 -20.958827 13.992983 -1.777642 0.000000 0.000000 0.000000 
0.030830 0.600134 -0.034820 -4.438238 3.031102 3.067249 35.579353 12.859072 -61.618914 -12.346554 10.751444 91.189270 7.025799 8.768268 -24.501001 0.000000 0.000000 0.000000 -28.353837 -9.514295 -56.058641 10.424502 -8.642915 84.099951 -7.430239 -16.749959 -17.952535 0.000000 0.000000 0.000000 -6.248746 -0.153843 60.111101 9.189080 -0.891132 -30.129107 7.619300 9.067831 20.551517 -3.355915 4.680923 -45.451797 0.000000 0.000000 0.000000 -14.045806 -28.266400 11.010805 -19.991296 -60.912371 4.395851 18.805135 -24.498164 -3.233679 0.000000 0.000000 0.000000 4.142782 38.291013 15.995050 6.384771 44.623910 -0.607086 -19.148903 10.852790 -1.182793 0.000000 0.000000 0.000000 
